<?xml version="1.0" encoding="iso-8859-1"?>
<!-- Generator: Adobe Illustrator 19.0.0, SVG Export Plug-In . SVG Version: 6.00 Build 0)  -->
<svg version="1.1" id="Capa_1" xmlns="http://www.w3.org/2000/svg" xmlns:xlink="http://www.w3.org/1999/xlink" x="0px" y="0px"
	 viewBox="0 0 419.84 419.84" style="enable-background:new 0 0 419.84 419.84;" xml:space="preserve">
<g>
	<g>
		<path d="M209.92,0C94.72,0,0,94.72,0,209.92s94.72,209.92,209.92,209.92s209.92-94.72,209.92-209.92S325.12,0,209.92,0z
			 M308.224,229.376h-78.848v78.848c0,11.264-8.704,19.456-19.456,19.456s-19.456-8.704-19.456-19.456v-78.848h-78.848
			c-11.264,0-19.456-8.704-19.456-19.456s8.192-19.456,19.456-19.456h78.848v-78.848c0-11.264,8.704-19.456,19.456-19.456
			c10.752,0,19.456,8.704,19.456,19.456v78.848h78.848c11.264,0,19.456,8.704,19.456,19.456
			C327.68,220.672,318.976,229.376,308.224,229.376z"/>
	</g>
</g>
<g>
</g>
<g>
</g>
<g>
</g>
<g>
</g>
<g>
</g>
<g>
</g>
<g>
</g>
<g>
</g>
<g>
</g>
<g>
</g>
<g>
</g>
<g>
</g>
<g>
</g>
<g>
</g>
<g>
</g>
</svg>
