<svg id="Capa_1" enable-background="new 0 0 512 512" height="512" viewBox="0 0 512 512" width="512" xmlns="http://www.w3.org/2000/svg"><g><path d="m391 360c-8.291 0-15 6.709-15 15v122c0 8.291 6.709 15 15 15s15-6.709 15-15v-122c0-8.291-6.709-15-15-15z" fill="#4b2746"/><path d="m406 497v-122c0-8.291-6.709-15-15-15v152c8.291 0 15-6.709 15-15z" fill="#351b33"/><path d="m497 150h-106-105c-8.291 0-15 6.709-15 15v210c0 8.291 6.709 15 15 15h105 106c8.291 0 15-6.709 15-15v-210c0-8.291-6.709-15-15-15z" fill="#e64d2e"/><path d="m512 375v-210c0-8.291-6.709-15-15-15h-106v240h106c8.291 0 15-6.709 15-15z" fill="#991f1f"/><path d="m151 270c-8.291 0-15 6.709-15 15v212c0 8.291 6.709 15 15 15s15-6.709 15-15v-212c0-8.291-6.709-15-15-15z" fill="#613d5c"/><path d="m166 497v-212c0-8.291-6.709-15-15-15v242c8.291 0 15-6.709 15-15z" fill="#4b2746"/><path d="m286 0h-135-136c-8.291 0-15 6.709-15 15v270c0 8.291 6.709 15 15 15h136 135c8.291 0 15-6.709 15-15v-270c0-8.291-6.709-15-15-15z" fill="#edf5ff"/><path d="m301 285v-270c0-8.291-6.709-15-15-15h-135v300h135c8.291 0 15-6.709 15-15z" fill="#d0e4e7"/><g><path d="m151 60c-49.63 0-90 40.371-90 90s40.37 90 90 90c49.628 0 90-40.371 90-90s-40.372-90-90-90zm-60 90c0-33.09 26.91-60 60-60 11.093 0 21.365 3.231 30.288 8.499l-30.288 30.291-51.501 51.498c-5.268-8.922-8.499-19.194-8.499-30.288zm60 60c-11.095 0-21.367-3.231-30.288-8.499l30.288-30.291 51.501-51.498c5.267 8.922 8.499 19.194 8.499 30.288 0 33.09-26.91 60-60 60z" fill="#e64d2e"/></g><g><path d="m241 150c0-49.629-40.372-90-90-90v30c11.093 0 21.365 3.231 30.288 8.499l-30.288 30.291v42.42l51.501-51.498c5.267 8.922 8.499 19.194 8.499 30.288 0 33.09-26.91 60-60 60v30c49.628 0 90-40.371 90-90z" fill="#cc2929"/></g><path d="m412.211 270 34.395-34.395c5.859-5.859 5.859-15.352 0-21.211s-15.352-5.859-21.211 0l-34.395 34.395-34.395-34.395c-5.859-5.859-15.352-5.859-21.211 0s-5.859 15.352 0 21.211l34.395 34.395-34.395 34.395c-5.859 5.859-5.859 15.352 0 21.211s15.352 5.859 21.211 0l34.395-34.395 34.395 34.395c5.859 5.859 15.352 5.859 21.211 0s5.859-15.352 0-21.211z" fill="#d0e4e7"/><path d="m446.605 325.605c5.859-5.859 5.859-15.352 0-21.211l-34.394-34.394 34.395-34.395c5.859-5.859 5.859-15.352 0-21.211s-15.352-5.859-21.211 0l-34.395 34.395v42.422l34.395 34.395c5.859 5.859 15.351 5.859 21.21-.001z" fill="#a8d3d8"/></g></svg>