<?xml version="1.0" encoding="utf-8"?>
<!-- Generator: Adobe Illustrator 23.1.0, SVG Export Plug-In . SVG Version: 6.00 Build 0)  -->
<svg version="1.1" id="Layer_1" xmlns="http://www.w3.org/2000/svg" xmlns:xlink="http://www.w3.org/1999/xlink" x="0px" y="0px"
	 viewBox="0 0 512 512" style="enable-background:new 0 0 512 512;" xml:space="preserve">
<style type="text/css">
	.st0{fill:#FF7E00;}
</style>
<path class="st0" d="M471.4,72.6C444.9,43.8,408.5,28,369,28c-29.5,0-56.6,9.3-80.4,27.8c-12,9.3-22.9,20.7-32.5,34
	c-9.6-13.3-20.5-24.7-32.5-34C199.7,37.3,172.6,28,143,28c-39.5,0-75.9,15.8-102.4,44.6C14.4,101,0,139.8,0,181.9
	c0,43.3,16.1,82.9,50.8,124.7c31,37.4,75.5,75.4,127.1,119.3l0.1,0.1c17.6,15,37.5,32,58.2,50.1c5.5,4.8,12.5,7.4,19.8,7.4
	s14.3-2.6,19.8-7.4c20.7-18.1,40.7-35.2,58.3-50.2c51.6-44,96.1-81.9,127.1-119.3c34.7-41.8,50.8-81.4,50.8-124.7
	C512,139.8,497.6,101,471.4,72.6z M438.1,287.5c-29.3,35.4-73,72.6-123.5,115.6c-17.7,15.1-37.7,32.2-58.7,50.4
	c-20.8-18.2-40.9-35.3-58.5-50.3l-0.1-0.1c-50.5-43-94.1-80.2-123.5-115.6C43.5,250.9,30,218.3,30,181.9c0-34.5,11.6-66.1,32.7-89
	C83.4,70.4,112,58,143,58c22.8,0,43.6,7.2,62.1,21.5c16.4,12.7,27.9,28.8,34.6,40c3.5,5.8,9.5,9.2,16.3,9.2s12.8-3.5,16.3-9.2
	c6.7-11.3,18.2-27.3,34.6-40C325.3,65.2,346.2,58,369,58c31.1,0,59.6,12.4,80.4,34.9c21.1,22.9,32.7,54.5,32.7,89
	C482,218.3,468.5,250.9,438.1,287.5z"/>
<path class="st0" d="M482,181.9c0,36.4-13.5,69-43.9,105.6c-29.3,35.4-73,72.6-123.5,115.6c-17.7,15.1-37.7,32.2-58.7,50.4
	c-20.8-18.2-40.9-35.3-58.5-50.3l-0.1-0.1c-50.5-43-94.1-80.2-123.5-115.6C43.5,250.9,30,218.3,30,181.9c0-34.5,11.6-66.1,32.7-89
	C83.4,70.4,112,58,143,58c22.8,0,43.6,7.2,62.1,21.5c16.4,12.7,27.9,28.8,34.6,40c3.5,5.8,9.5,9.2,16.3,9.2s12.8-3.5,16.3-9.2
	c6.7-11.3,18.2-27.3,34.6-40C325.3,65.2,346.2,58,369,58c31.1,0,59.6,12.4,80.4,34.9C470.4,115.8,482,147.4,482,181.9z"/>
</svg>
