<?xml version="1.0" encoding="iso-8859-1"?>
<!-- Generator: Adobe Illustrator 19.0.0, SVG Export Plug-In . SVG Version: 6.00 Build 0)  -->
<svg version="1.1" id="Capa_1" xmlns="http://www.w3.org/2000/svg" xmlns:xlink="http://www.w3.org/1999/xlink" x="0px" y="0px"
	 viewBox="0 0 512.008 512.008" style="enable-background:new 0 0 512.008 512.008;" xml:space="preserve">
<g>
	<g>
		<path d="M511.99,436.74l-21.333-384c-0.149-2.88-1.472-5.568-3.648-7.467s-5.013-2.944-7.893-2.581L439.5,45.998
			c-9.493-14.784-25.984-24.661-44.821-24.661c-22.016,0-40.96,13.419-49.088,32.512L210.273,65.134L76.406,42.82
			c-5.781-1.088-11.243,2.901-12.245,8.661l-64,362.667c-0.491,2.795,0.149,5.675,1.792,8c1.643,2.325,4.139,3.904,6.955,4.373
			l95.744,15.957l2.048,38.101c0.171,2.923,1.515,5.653,3.755,7.552c1.941,1.643,4.373,2.539,6.891,2.539
			c0.405,0,0.789-0.021,1.173-0.064l164.907-18.325l109.483,18.24c0.597,0.107,1.195,0.149,1.771,0.149
			c5.099,0,9.6-3.648,10.475-8.832l4.16-23.531l93.205-10.368C508.15,447.321,512.31,442.393,511.99,436.74z M363.574,67.438
			c0.064-0.171,0.107-0.341,0.171-0.512c3.499-13.888,15.979-24.256,30.933-24.256c13.077,0,24.341,7.915,29.291,19.2
			c0.085,0.171,0.149,0.341,0.235,0.512c1.6,3.776,2.475,7.936,2.475,12.288c0,11.413-6.059,21.376-15.061,27.051
			c-0.064,0.043-0.128,0.064-0.171,0.085c-4.885,3.029-10.603,4.864-16.768,4.864c-17.643,0-32-14.357-32-32
			C362.678,72.174,363.041,69.764,363.574,67.438z M341.452,75.609c0.064,4.011,0.64,7.893,1.557,11.648l-47.083-7.851
			L341.452,75.609z M127.393,468.164l-1.195-22.101l79.979,13.333L127.393,468.164z M385.996,467.716L23.03,407.236L83.318,65.582
			l261.739,43.627l-43.264,43.264c-4.16,4.16-4.16,10.923,0,15.083c2.091,2.069,4.821,3.115,7.552,3.115
			c2.731,0,5.461-1.045,7.531-3.115l48.448-48.448c8.427,5.589,18.517,8.896,29.355,8.896c9.003,0,17.344-2.453,24.789-6.4
			l26.816,4.459L385.996,467.716z M413.174,436.398l55.979-317.227c0.491-2.795-0.149-5.675-1.792-8
			c-1.643-2.325-4.139-3.904-6.955-4.373l-20.885-3.477c5.312-8.299,8.491-18.091,8.491-28.651c0-2.709-0.405-5.291-0.789-7.893
			l22.741-1.899l20.16,362.965L413.174,436.398z"/>
	</g>
</g>
<g>
</g>
<g>
</g>
<g>
</g>
<g>
</g>
<g>
</g>
<g>
</g>
<g>
</g>
<g>
</g>
<g>
</g>
<g>
</g>
<g>
</g>
<g>
</g>
<g>
</g>
<g>
</g>
<g>
</g>
</svg>
