<svg id="Calque_1" data-name="Calque 1" xmlns="http://www.w3.org/2000/svg" xmlns:xlink="http://www.w3.org/1999/xlink" viewBox="0 0 226.58 138.55"><defs><style>.cls-1,.cls-7{fill:none;}.cls-2{clip-path:url(#clip-path);}.cls-3{fill:#fff;}.cls-4{fill:#f9b136;}.cls-5{fill:#e01c3e;}.cls-6{fill:#f8f8f9;}.cls-7{stroke:#fff;stroke-miterlimit:10;}.cls-8{fill:#04a39b;}.cls-9{fill:#6a6463;}</style><clipPath id="clip-path" transform="translate(15.36 -30.72)"><rect class="cls-1" x="20" y="31" width="163" height="103"/></clipPath></defs><title>logo-big-mall-version-f</title><g class="cls-2"><polygon class="cls-3" points="94.69 91.06 137.85 91.06 137.85 1.58 94.69 8.71 94.69 91.06"/><path class="cls-4" d="M102.64,67.6a.76.76,0,0,1-.76.77.77.77,0,0,1-.77-.77v-32L73.4,40.14v96.59l57-3.35V30.72L102.64,35.3Zm-.76,38.55a8.22,8.22,0,0,1-8.22-8.21h16.43A8.21,8.21,0,0,1,101.88,106.15Zm7.22-26.36,11,15.66a.79.79,0,0,1,.05.8.76.76,0,0,1-.68.41H84.25a.79.79,0,0,1-.68-.41.77.77,0,0,1,.06-.8l11-15.66a.74.74,0,0,1,.62-.33h13.19A.76.76,0,0,1,109.1,79.79Zm-3.49-2a.76.76,0,0,1-.77.76H98.91a.76.76,0,0,1-.76-.76V73.29a3.73,3.73,0,0,1,7.46,0Z" transform="translate(15.36 -30.72)"/><path class="cls-4" d="M101.88,71.09a2.21,2.21,0,0,0-2.2,2.2V77h4.4V73.29A2.21,2.21,0,0,0,101.88,71.09Z" transform="translate(15.36 -30.72)"/><polygon class="cls-4" points="133.38 64.41 123.43 50.27 111.03 50.27 101.08 64.41 133.38 64.41"/><polygon class="cls-5" points="198.36 102.66 150.82 99.67 150.46 21.17 198.36 28.48 198.36 102.66"/><path class="cls-6" d="M183.08,99.53c-.73-.55-2.18.64-2.18.64a3.38,3.38,0,0,1,2.18,0,3.35,3.35,0,0,1,2.17,0S183.8,99,183.08,99.53Z" transform="translate(15.36 -30.72)"/><path class="cls-6" d="M183.08,100.51a4.17,4.17,0,0,0-2.18-.21,3,3,0,0,0,4.35,0A4.13,4.13,0,0,0,183.08,100.51Z" transform="translate(15.36 -30.72)"/><path class="cls-6" d="M158.93,84.18s-5.86-7.28.81-8.19c6.21-.85,33.45,19.42,46.48,18.56a5.5,5.5,0,0,0,4.61-3c.89-1.81.69-4.18-5.08-5.39,0,0,6.67,1.92,2.32,6s-43.78-17.42-43.78-17.42-7.61-3.74-9.2,1.74C154,80.34,158.93,84.18,158.93,84.18Z" transform="translate(15.36 -30.72)"/><path class="cls-6" d="M171.24,81.41a3.94,3.94,0,0,1-3.07,2.31,5.45,5.45,0,0,0-2.87.91,4.57,4.57,0,0,0-1.17,2.65c-.14.69-.28,1.38-.41,2.07a2.63,2.63,0,0,1-3,2.42,4.93,4.93,0,0,0-3.26,1.07A3.14,3.14,0,0,0,156.42,96a4.81,4.81,0,0,0,1.34,2c1.13,1.17,2.39,2.44,2.51,4.05a3.3,3.3,0,0,1-4.06,3.47,9.45,9.45,0,0,1-2.79-1.6,3.17,3.17,0,0,0-1.88-.39,4.34,4.34,0,0,0-4,2.3,10.19,10.19,0,0,0-.57,1.57,4.48,4.48,0,0,0,.39,3c.39,1,1.21,1.59,1.63,2.57a1.65,1.65,0,0,1-.44,2,2.08,2.08,0,0,1-.81.26,2.38,2.38,0,0,1-1.93-.45,1.24,1.24,0,0,1-.12-1.8,2.39,2.39,0,0,0-.55,3.47,3.86,3.86,0,0,0,3.62,1.2,4.39,4.39,0,0,0,2.61-1.35,3,3,0,0,0,.65-2.8,12.17,12.17,0,0,0-1.26-2.1,1.93,1.93,0,0,1,0-2.29,1.59,1.59,0,0,1,.66-.39,2.54,2.54,0,0,1,3,1.07c.75,1.11,1.47,2.22,2.23,3.33a5.39,5.39,0,0,0,2.07,1.68,7.37,7.37,0,0,0,4.56.58c2.73-.48,3.56-2.48,4.34-4.75.55-1.61,2.18-2.18,3.76-2.25a17.32,17.32,0,0,1,7.56,1.76c1.17-1.35,1.2-4,1-6-5-3.76-5.66-10.31-4.78-16,.11-.71.3-1.52,1-1.81a1.53,1.53,0,0,1,1.72.56,7.2,7.2,0,0,1,.87,1.73,3.55,3.55,0,0,0,1.73,2,5.29,5.29,0,0,0,3.09-.14,3.21,3.21,0,0,1,3,.48c.39.41.6,1,1.1,1.28a3.67,3.67,0,0,0,1.41.14c3.66.18,2,4.84,1.12,6.85a10.83,10.83,0,0,1-4.2,5.08c-.16,4.1,1.65,5.75,1.65,5.76a25.42,25.42,0,0,0,8.31-16.45C187.87,90.56,178.57,85.23,171.24,81.41Z" transform="translate(15.36 -30.72)"/><path class="cls-6" d="M175.55,76.51s9.94,8.54,21.33,9.48C196.88,86,184,81.6,175.55,76.51Z" transform="translate(15.36 -30.72)"/><path class="cls-6" d="M176,74.23s6.32-9.74,15-6.58c9.58,3.48,7.81,11.76,7.19,14.91,0,0-.17-11.49-8.07-13.42S176,74.23,176,74.23Z" transform="translate(15.36 -30.72)"/><path class="cls-7" d="M173.09,109.71c-2.48,6.48-4,12.32-2,15.92h26.69S175.25,124.67,173.09,109.71Z" transform="translate(15.36 -30.72)"/><polygon class="cls-8" points="34.59 99.6 82 102.66 81.81 22.01 34.46 29.4 34.59 99.6"/><path class="cls-6" d="M2.36,104.43c.7-.26-1.29-2.23-1.29-2.23-1.32-.92-11.35-5-11.73-4.87-1.42.64,1.48,4.48,2.42,5.18S1.66,104.69,2.36,104.43Z" transform="translate(15.36 -30.72)"/><path class="cls-6" d="M54.78,82.49a2,2,0,0,0-1.48-1.08,14.05,14.05,0,0,0-1.83-.11,28.57,28.57,0,0,0-3.52.24.51.51,0,0,0-.36.27.9.9,0,0,0-.11.54,11.72,11.72,0,0,1-.2,4.46c-.61-1.31-1.92-4.08-3.34-6.88-4.11-8.06-5.15-8.38-5.64-8.53-1.73-.54-13.79-1.25-17.38-1.45v-.1L20,69.9l-.89-.05V70c-3.59.2-15.65.91-17.38,1.45-.49.15-1.53.47-5.64,8.53-1.42,2.8-2.73,5.57-3.34,6.88a11.72,11.72,0,0,1-.2-4.46.9.9,0,0,0-.11-.54.51.51,0,0,0-.36-.27,28.51,28.51,0,0,0-3.51-.24,14.1,14.1,0,0,0-1.84.11,2,2,0,0,0-1.48,1.08c-.93,1.63-.56,4.48-.52,4.81a.72.72,0,0,0,.33.52l4.51,2.34a25.24,25.24,0,0,0-2.95,3.38c-.35.55-1,1.56-.68,11.48.15,4.71.46,9.23.46,9.28l.08,1.22,1.67-.2a352.63,352.63,0,0,0,35.53,1.91,188.32,188.32,0,0,0,28.35-1.89l1.5.18.08-1.22s.31-4.57.46-9.28c.32-9.92-.33-10.93-.67-11.48a26.17,26.17,0,0,0-3-3.38L55,87.82a.72.72,0,0,0,.33-.52C55.34,87,55.71,84.12,54.78,82.49ZM2.2,73.77C3.59,73.36,13.59,72.7,20,72.35c6.43.35,16.43,1,17.82,1.42,1,.58,4.58,7.32,7.57,13.73-4.28-.2-16.74-.75-24.86-.78H19.5c-8.13,0-20.59.58-24.87.78C-2.38,81.09,1.18,74.35,2.2,73.77Zm-16.44,12.9a6.78,6.78,0,0,1,.36-3.34,1,1,0,0,1,.74-.53,12.51,12.51,0,0,1,1.73-.1,27.41,27.41,0,0,1,2.86.17c-.1,1.28-.16,3.65.56,4.95l-1.43,1.36Zm65.41,7.4-13.32,6.75h0a.31.31,0,0,0-.11.09,12,12,0,0,0-.76,1,12.16,12.16,0,0,0-.7,1.06,4.42,4.42,0,0,0-.56,1.35,1.61,1.61,0,0,0,0,.5,1.1,1.1,0,0,0,.2.54l.17.17.1.06.07,0a1.26,1.26,0,0,0,.31.09,5.67,5.67,0,0,0,1.08,0c.35,0,.69,0,1-.08.69-.07,1.37-.17,2.05-.28,1.37-.23,2.72-.52,4.07-.86.68-.18,1.35-.37,2-.59.34-.11.67-.23,1-.36a6.14,6.14,0,0,0,1-.48,5.51,5.51,0,0,1-1,.41c-.33.12-.66.21-1,.3-.67.18-1.35.32-2,.45-1.36.26-2.72.45-4.08.59q-1,.11-2,.15c-.34,0-.68,0-1,0a7.4,7.4,0,0,1-1-.1l-.11,0-.05,0h0l0,0h0l0,0s0,0,0-.06,0-.09,0-.17a3.69,3.69,0,0,1,.48-1c.21-.32.44-.63.68-.93s.46-.55.69-.8l14-6c.35,2.54.15,10.39-.3,17.42-2.24.35-4.55.65-6.9.89H-1.32c-4.94-.37-8.65-.74-10.47-.94-.45-7-.65-14.83-.29-17.37l13.94,6c.23.25.47.52.69.8s.47.61.68.93a3.69,3.69,0,0,1,.48,1c0,.08,0,.13,0,.17a.42.42,0,0,1,0,.06l0,0h0l-.05,0h0l-.05,0-.11,0a7.4,7.4,0,0,1-1,.1c-.34,0-.68,0-1,0q-1,0-2-.15c-1.36-.14-2.73-.33-4.08-.59-.68-.13-1.35-.27-2-.45-.34-.09-.67-.18-1-.3a5.51,5.51,0,0,1-1-.41,6.61,6.61,0,0,0,1,.48c.33.13.66.25,1,.36.66.22,1.33.41,2,.59,1.35.34,2.7.63,4.07.86.68.11,1.36.21,2.05.28.35,0,.69.06,1,.08a5.67,5.67,0,0,0,1.08,0,1.26,1.26,0,0,0,.31-.09l.07,0,.1-.06.17-.17a1.12,1.12,0,0,0,.21-.54,2,2,0,0,0,0-.5A4.42,4.42,0,0,0,3.79,103a12.16,12.16,0,0,0-.7-1.06,12,12,0,0,0-.76-1,.31.31,0,0,0-.11-.09h0l-13.32-6.75c1.41-1.63,3.85-3.93,4.86-4.86A1,1,0,0,0-6,88.94c3.47-.17,17.49-.82,26.07-.82s22.59.65,26.06.82a1.15,1.15,0,0,0,.21.27C47.32,90.14,49.76,92.44,51.17,94.07Zm3.12-7.4-4.83,2.51c-.54-.53-1-1-1.42-1.36.72-1.3.67-3.67.56-4.95a27.45,27.45,0,0,1,2.87-.17,12.71,12.71,0,0,1,1.73.1.94.94,0,0,1,.73.52A7,7,0,0,1,54.29,86.67Z" transform="translate(15.36 -30.72)"/><path class="cls-6" d="M50.71,97.33c-.38-.17-10.41,4-11.73,4.87,0,0-2,2-1.29,2.23s9.67-1.23,10.6-1.92S52.13,98,50.71,97.33Z" transform="translate(15.36 -30.72)"/><path class="cls-6" d="M39.17,97.85a18.27,18.27,0,0,0-1.78.71,7.77,7.77,0,0,0-1,.53,2.07,2.07,0,0,0-.48.43,5.3,5.3,0,0,0-.35.61A8.48,8.48,0,0,1,34.09,102a4.8,4.8,0,0,1-.92.69,1.73,1.73,0,0,1-.46.19h-.54c-.38,0-.75,0-1.12,0l-1.11,0-2.2-.1-3.9-.21-3-.18v-.1l-.78,0-.79,0v.1l-3,.18-3.9.21-2.2.1L9,103c-.37,0-.74,0-1.12,0H7.34a1.73,1.73,0,0,1-.46-.19A5.14,5.14,0,0,1,6,102a8.48,8.48,0,0,1-1.51-1.91,5.3,5.3,0,0,0-.35-.61,2.07,2.07,0,0,0-.48-.43,6.55,6.55,0,0,0-1-.53,17.32,17.32,0,0,0-1.78-.71c-1.11-.38-2-.63-2.7-.81l-1-.26,1,.35c.64.23,1.56.57,2.64,1A15.88,15.88,0,0,1,2.53,99a6.58,6.58,0,0,1,.87.58,1.85,1.85,0,0,1,.37.37c.07.09.15.32.26.53a9.51,9.51,0,0,0,1.54,2.23,6.08,6.08,0,0,0,1,.88,2.31,2.31,0,0,0,.61.3l0,0h.13l.15,0,.28,0c.37.06.77.06,1.16.09s.78.06,1.15.07l2.21.1,3.91.12,3,.08v0l.79,0h0l.79,0v0l3-.08,3.91-.12,2.21-.1c.37,0,.76,0,1.15-.07s.79,0,1.16-.09l.28,0,.15,0h.13l0,0a2.66,2.66,0,0,0,.61-.3,6.43,6.43,0,0,0,1-.88A9.22,9.22,0,0,0,36,100.49c.11-.21.19-.44.26-.53a1.85,1.85,0,0,1,.37-.37,6,6,0,0,1,.87-.58,16.83,16.83,0,0,1,1.72-.84c1.08-.47,2-.81,2.64-1l1-.35-1,.26C41.21,97.22,40.28,97.47,39.17,97.85Z" transform="translate(15.36 -30.72)"/><path class="cls-6" d="M-11.58,116.89s-.91,5.45,0,7,9.8,1.44,11,0,.58-6.38.58-6.38C-3.52,117.49-11.58,116.89-11.58,116.89Z" transform="translate(15.36 -30.72)"/><path class="cls-6" d="M39.91,117.49s-.67,4.93.58,6.38,10.16,1.53,11.07,0,0-7,0-7S43.49,117.49,39.91,117.49Z" transform="translate(15.36 -30.72)"/></g><path class="cls-9" d="M19.22,142.74H31.44a11.84,11.84,0,0,1,4.94.8,7.26,7.26,0,0,1,2.73,2.31,6.06,6.06,0,0,1,1.07,3.65q0,4.35-4.72,5.81a6.76,6.76,0,0,1,4.09,2.45,6.5,6.5,0,0,1,1.36,4,6.82,6.82,0,0,1-2.23,5.09c-1.48,1.43-3.9,2.14-7.24,2.14H19.22Zm6.13,4.63v5.75H30c1.7,0,2.77-.34,3.22-1a3.58,3.58,0,0,0,.66-1.94,2.72,2.72,0,0,0-.55-1.71,2.25,2.25,0,0,0-1.2-.91,11.72,11.72,0,0,0-2.57-.18Zm0,10.42v6.32h4.71a5.32,5.32,0,0,0,3.42-.85,3.13,3.13,0,0,0,0-4.55,4.49,4.49,0,0,0-3.19-.92Z" transform="translate(15.36 -30.72)"/><path class="cls-9" d="M52.42,142.74V169H46.29V142.74Z" transform="translate(15.36 -30.72)"/><path class="cls-9" d="M79.34,155.11v13.77H76.58a20.4,20.4,0,0,0-.85-3,8.71,8.71,0,0,1-7,3.35,9.36,9.36,0,0,1-7.84-3.6,14.73,14.73,0,0,1-2.81-9.32q0-6.15,3-9.88a9.84,9.84,0,0,1,8.12-3.73,9.87,9.87,0,0,1,6.94,2.41,10.43,10.43,0,0,1,3.23,6.43l-5.74.76q-.69-4.68-4.43-4.68a4,4,0,0,0-3.7,2.22,12.92,12.92,0,0,0-1.26,6.32,11.15,11.15,0,0,0,1.36,6.06,4.56,4.56,0,0,0,6.76,1,4.13,4.13,0,0,0,1.27-3.37H68.76v-4.81Z" transform="translate(15.36 -30.72)"/><path class="cls-9" d="M101.29,169,95.67,150.4V169H91.2V146.19h8.31l4,13.64,4.2-13.64h8.34V169h-5.38V150.4L104.94,169Z" transform="translate(15.36 -30.72)"/><path class="cls-9" d="M136,146.19,143.1,169h-5.73L136,164.28H128.6L127.17,169h-4.68l7.3-22.78Zm-6.09,13.88h4.82l-2.39-8Z" transform="translate(15.36 -30.72)"/><path class="cls-9" d="M154.14,164.46h9.06V169H148.73V146.19h5.41Z" transform="translate(15.36 -30.72)"/><path class="cls-9" d="M174.9,164.46H184V169H169.5V146.19h5.4Z" transform="translate(15.36 -30.72)"/></svg>