<svg id="Capa_1" enable-background="new 0 0 512 512" height="512" viewBox="0 0 512 512" width="512" xmlns="http://www.w3.org/2000/svg"><g><g><g><g><path d="m23.862 27.272v457.456c0 15.062 12.21 27.272 27.272 27.272h348.229c15.062 0 27.272-12.21 27.272-27.272v-364.454l-120.274-120.274h-255.227c-15.062 0-27.272 12.21-27.272 27.272z" fill="#eaecf0"/><path d="m332.629 26.267v113.059c0 11.381 9.226 20.606 20.606 20.606h19.148v352.068h26.98c15.062 0 27.272-12.21 27.272-27.272v-364.454z" fill="#d3d7de"/><path d="m306.361 0 120.274 120.274h-99.667c-11.38 0-20.606-9.226-20.606-20.606v-99.668z" fill="#df705d"/></g><g><g><path d="m445.983 264.134-16.731-16.731 38.69-38.69c4.62-4.62 12.111-4.62 16.731 0 4.62 4.62 4.62 12.111 0 16.731z" fill="#676e84"/><path d="m431.752 231.453-220.526 220.527-28.087 47.839c-4.204 7.16 3.864 15.228 11.024 11.024l47.839-28.087 220.527-220.527c3.612-3.612 3.612-9.468 0-13.08l-17.696-17.696c-3.613-3.612-9.469-3.612-13.081 0z" fill="#e5a747"/><path d="m194.162 510.842 47.839-28.087-30.776-30.776-28.087 47.839c-4.203 7.161 3.864 15.228 11.024 11.024z" fill="#676e84"/></g><path d="m405.324 252.299h29.191v43.523h-29.191z" fill="#676e84" transform="matrix(.707 -.707 .707 .707 -70.799 377.199)"/></g></g><g><g><path d="m364.311 196.771h-290.487c-4.267 0-7.726-3.459-7.726-7.726s3.459-7.726 7.726-7.726h290.487c4.267 0 7.726 3.459 7.726 7.726s-3.459 7.726-7.726 7.726z" fill="#676e84"/></g><g><path d="m364.311 268.222h-290.487c-4.267 0-7.726-3.459-7.726-7.726s3.459-7.726 7.726-7.726h290.487c4.267 0 7.726 3.459 7.726 7.726s-3.459 7.726-7.726 7.726z" fill="#676e84"/></g><g><path d="m276.259 339.675h-202.435c-4.267 0-7.726-3.459-7.726-7.726s3.459-7.726 7.726-7.726h202.434c4.267 0 7.726 3.459 7.726 7.726s-3.458 7.726-7.725 7.726z" fill="#676e84"/></g><g><path d="m219.068 411.127h-145.244c-4.267 0-7.726-3.459-7.726-7.726s3.459-7.726 7.726-7.726h145.243c4.267 0 7.726 3.459 7.726 7.726s-3.458 7.726-7.725 7.726z" fill="#676e84"/></g></g><g><g><path d="m229.513 77.134h-155.689c-4.267 0-7.726-3.459-7.726-7.726 0-4.268 3.459-7.726 7.726-7.726h155.688c4.267 0 7.726 3.459 7.726 7.726.001 4.267-3.458 7.726-7.725 7.726z" fill="#676e84"/></g><g><path d="m229.513 128h-155.689c-4.267 0-7.726-3.459-7.726-7.726 0-4.268 3.459-7.726 7.726-7.726h155.688c4.267 0 7.726 3.459 7.726 7.726.001 4.267-3.458 7.726-7.725 7.726z" fill="#676e84"/></g></g></g></g></svg>