<svg id="color" enable-background="new 0 0 24 24" height="512" viewBox="0 0 24 24" width="512" xmlns="http://www.w3.org/2000/svg"><path d="m17.25 24c-3.722 0-6.75-3.028-6.75-6.75s3.028-6.75 6.75-6.75 6.75 3.028 6.75 6.75-3.028 6.75-6.75 6.75z" fill="#2196f3"/><path d="m17.25 21c-.552 0-1-.448-1-1v-5.5c0-.552.448-1 1-1s1 .448 1 1v5.5c0 .552-.448 1-1 1z" fill="#fff"/><path d="m20 18.25h-5.5c-.552 0-1-.448-1-1s.448-1 1-1h5.5c.552 0 1 .448 1 1s-.448 1-1 1z" fill="#fff"/><path d="m23.98 3.66v.04c0 .97-.38 1.9-1.07 2.59l-1.94 1.98-5.25-5.22 1.92-1.96c.69-.7 1.62-1.1 2.61-1.11.98.03 1.92.38 2.63 1.08.7.69 1.1 1.61 1.1 2.6z" fill="#f44336"/><path d="m5.15 18.79-2.59-2.59c-.06.07-.11.14-.14.23l-2.38 6.56c-.09.28-.03.58.18.79.14.14.33.22.53.22.09 0 .17-.01.26-.04l6.56-2.38c.09-.03.16-.08.23-.14z" fill="#ffe082"/><path d="m8.5 17.25c0 1.04.18 2.04.52 2.97l-1.22 1.22-2.65-2.65 3.61-3.65c-.17.67-.26 1.38-.26 2.11z" fill="#ffb300"/><path d="m20.97 8.27-.75.75c-.93-.34-1.93-.52-2.97-.52-.75 0-1.48.1-2.18.28l3.18-3.21 2.71 2.69z" fill="#ffb300"/><path d="m18.25 5.57-3.18 3.21c-3.1.8-5.54 3.25-6.31 6.36l-3.61 3.65-2.59-2.59.08-.08 12.53-12.52.55-.55z" fill="#ffc107"/></svg>