<?xml version="1.0" encoding="UTF-8"?>
<svg width="15px" height="16px" viewBox="0 0 15 16" version="1.1" xmlns="http://www.w3.org/2000/svg" xmlns:xlink="http://www.w3.org/1999/xlink">
    <!-- Generator: Sketch 50.2 (55047) - http://www.bohemiancoding.com/sketch -->
    <title>icon/search</title>
    <desc>Created with Sketch.</desc>
    <defs></defs>
    <g id="icon/search" stroke="none" stroke-width="1" fill="none" fill-rule="evenodd">
        <path d="M11.3820189,10.8213587 L14.7803301,14.2196699 C15.0732233,14.5125631 15.0732233,14.9874369 14.7803301,15.2803301 C14.4874369,15.5732233 14.0125631,15.5732233 13.7196699,15.2803301 L10.3213587,11.8820189 C9.23588921,12.7387223 7.86515226,13.25 6.375,13.25 C2.85418472,13.25 0,10.3958153 0,6.875 C0,3.35418472 2.85418472,0.5 6.375,0.5 C9.89581528,0.5 12.75,3.35418472 12.75,6.875 C12.75,8.36515226 12.2387223,9.73588921 11.3820189,10.8213587 Z M9.86981921,10.2738075 C10.7239628,9.39568802 11.25,8.19677529 11.25,6.875 C11.25,4.18261184 9.06738816,2 6.375,2 C3.68261184,2 1.5,4.18261184 1.5,6.875 C1.5,9.56738816 3.68261184,11.75 6.375,11.75 C7.69677529,11.75 8.89568802,11.2239628 9.77380751,10.3698192 C9.788201,10.3525882 9.80348847,10.3358514 9.81966991,10.3196699 C9.83585136,10.3034885 9.85258825,10.288201 9.86981921,10.2738075 Z" id="Combined-Shape" fill="#FFFFFF" fill-rule="nonzero"></path>
    </g>
</svg>