<svg id="Layer_1" height="512" viewBox="0 0 512 512" width="512" xmlns="http://www.w3.org/2000/svg" data-name="Layer 1"><path d="m122.91 162a17.5 17.5 0 0 0 0 35h266.18a17.5 17.5 0 0 0 .07-35" fill="#8ab1c4"/><path d="m271.72 33.25a12.934 12.934 0 0 0 -16.69-7.35l-99.99 38.8a12.906 12.906 0 0 0 -7.34 16.68l31.3 80.62h44l54.74-113.34z" fill="#fbedce"/><path d="m257.5 364.7-49.4 23.96-49.4-23.95 49.41-23.96z" fill="#b3d1e7"/><path d="m208.1 292.84 49.4 23.96-49.39 23.95-49.41-23.96z" fill="#b3d1e7"/><path d="m306.89 340.75-49.39 23.95-49.39-23.95 49.39-23.95z" fill="#9fc1d6"/><path d="m356.3 316.79-49.41 23.96-49.39-23.95 49.4-23.96z" fill="#b3d1e7"/><path d="m356.3 268.88-49.4 23.96-49.4-23.96 49.4-23.95z" fill="#b3d1e7"/><path d="m306.9 292.84-49.4 23.96-49.4-23.96 49.4-23.96z" fill="#9fc1d6"/><path d="m257.5 268.88-49.4 23.96-49.4-23.96 49.4-23.95z" fill="#b3d1e7"/><path d="m257.5 220.97 49.4 23.96-49.4 23.95-49.4-23.95z" fill="#9fc1d6"/><g fill="#b3d1e7"><path d="m257.5 220.97-49.4 23.96-49.4-23.96 49.4-23.96z"/><path d="m356.3 220.97-49.4 23.96-49.4-23.96 49.4-23.96z"/><path d="m382.1 208.46-1.62 24.23h-.01l-24.17-11.72z"/></g><path d="m380.48 232.69-1.71 25.3-22.47 10.89-49.4-23.95 49.4-23.96 24.17 11.72z" fill="#9fc1d6"/><path d="m378.77 257.99-1.42 21.1-21.05-10.21z" fill="#b3d1e7"/><path d="m377.35 279.09-1.91 28.42-19.14 9.28-49.4-23.95 49.4-23.96z" fill="#9fc1d6"/><path d="m375.44 307.51-1.21 17.98-17.93-8.7z" fill="#b3d1e7"/><path d="m374.23 325.49-2.12 31.55-15.81 7.67-49.41-23.96 49.41-23.96z" fill="#9fc1d6"/><path d="m372.11 357.04-1 14.85-14.81-7.18z" fill="#b3d1e7"/><path d="m365.45 456.09-.2 3a28.68 28.68 0 0 1 -.86 5.36l-8.09-3.93z" fill="#b3d1e7"/><path d="m368.78 406.56-.79 11.72-11.69-5.67z" fill="#b3d1e7"/><path d="m371.11 371.89-2.33 34.67-12.48 6.05-49.4-23.95 49.4-23.95z" fill="#9fc1d6"/><path d="m356.3 364.71-49.4 23.95-49.4-23.96 49.39-23.95z" fill="#b3d1e7"/><path d="m257.5 364.7 49.4 23.96-49.4 23.95-49.4-23.95z" fill="#9fc1d6"/><path d="m257.5 412.61-49.4 23.96-49.4-23.96 49.4-23.95z" fill="#b3d1e7"/><path d="m356.3 412.61-49.4 23.96-49.4-23.96 49.4-23.95z" fill="#b3d1e7"/><path d="m306.9 436.57-49.4 23.95-49.4-23.95 49.4-23.96z" fill="#9fc1d6"/><path d="m367.99 418.28-2.54 37.81-9.15 4.43-49.4-23.95 49.4-23.96z" fill="#9fc1d6"/><path d="m356.3 460.52-49.4 23.96-49.4-23.96 49.4-23.95z" fill="#b3d1e7"/><path d="m356.3 460.52 8.09 3.93a29.884 29.884 0 0 1 -28.97 22.52h-23.38l-5.14-2.49z" fill="#9fc1d6"/><path d="m306.9 484.48-5.14 2.49h-88.52l-5.14-2.49 49.4-23.96z" fill="#9fc1d6"/><path d="m257.5 460.52-49.4 23.96-49.4-23.96 49.4-23.95z" fill="#b3d1e7"/><path d="m208.1 484.48-5.14 2.49h-23.38a29.884 29.884 0 0 1 -28.97-22.52l8.09-3.93z" fill="#9fc1d6"/><path d="m158.7 460.52-8.09 3.93a28.68 28.68 0 0 1 -.86-5.36l-.2-3z" fill="#b3d1e7"/><path d="m158.7 412.61 49.4 23.96-49.4 23.95-9.15-4.43-2.54-37.81z" fill="#9fc1d6"/><path d="m158.7 412.61-11.69 5.67-.79-11.72z" fill="#b3d1e7"/><path d="m208.1 388.66-49.4 23.95-12.48-6.05-2.33-34.67 14.81-7.18z" fill="#9fc1d6"/><path d="m142.89 357.04 15.81 7.67-14.81 7.18z" fill="#b3d1e7"/><path d="m208.11 340.75-49.41 23.96-15.81-7.67-2.12-31.55 17.93-8.7z" fill="#9fc1d6"/><path d="m208.1 292.84-49.4 23.95-19.14-9.28-1.91-28.42 21.05-10.21z" fill="#9fc1d6"/><path d="m158.7 316.79-17.93 8.7-1.21-17.98z" fill="#b3d1e7"/><path d="m158.7 268.88-21.05 10.21-1.42-21.1z" fill="#b3d1e7"/><path d="m158.7 220.97 49.4 23.96-49.4 23.95-22.47-10.89-1.71-25.3h.01z" fill="#9fc1d6"/><path d="m158.7 220.97-24.17 11.72h-.01l-1.62-24.23z" fill="#b3d1e7"/><path d="m306.9 197.01-49.4 23.96-49.4-23.96.46-.22h97.88z" fill="#9fc1d6"/><path d="m382.89 196.79-.79 11.67-25.8 12.51-49.4-23.96.46-.22z" fill="#9fc1d6"/><path d="m208.1 197.01-49.4 23.96-25.8-12.51-.79-11.67h75.53z" fill="#9fc1d6"/><path d="m135.54 179.5a17.486 17.486 0 0 1 17.37-17.5h-30a17.5 17.5 0 0 0 0 35h30a17.486 17.486 0 0 1 -17.37-17.5z" fill="#6c9bad"/><path d="m185.04 64.7 85.776-33.284a12.931 12.931 0 0 0 -15.786-5.516l-99.99 38.8a12.906 12.906 0 0 0 -7.34 16.68l31.3 80.62h30l-31.3-80.62a12.906 12.906 0 0 1 7.34-16.68z" fill="#d8c198"/><path d="m305.32 51.72a12.869 12.869 0 0 0 -16.635-7.35l-11.023 4.29-61.226 23.76-19.263 38.63 19.827 50.95h131z" fill="#e0eff8"/><path d="m304.433 49.913a12.855 12.855 0 0 0 -15.748-5.543l-11.023 4.29-61.226 23.76-19.263 38.63 19.827 50.95h30l-34.333-77.889z" fill="#a9c6d3"/><path d="m216.45 72.42 10.5 27.06-29.82 11.57-.03-.08z" fill="#8bafbc"/><path d="m303.114 97.579a6 6 0 0 0 -7.765-3.423l-62.02 24.07a6 6 0 1 0 4.342 11.188l62.02-24.07a6 6 0 0 0 3.423-7.765z" fill="#284268"/><path d="m303.675 115.472-61.951 24.228a6 6 0 1 0 4.371 11.176l61.951-24.23a6 6 0 0 0 -4.371-11.176z" fill="#284268"/><path d="m389.09 156h-36.762l-41.306-106.454a18.921 18.921 0 0 0 -24.453-10.769l-5.454 2.116-3.8-9.817a18.917 18.917 0 0 0 -24.453-10.77l-99.986 38.794a18.916 18.916 0 0 0 -10.79 24.446l28.114 72.454h-47.29a23.5 23.5 0 0 0 0 47h3.09l18.543 262.987a36.078 36.078 0 0 0 35.037 27.013h155.84a35.539 35.539 0 0 0 34.527-27.024l18.053-262.976h1.09a23.5 23.5 0 0 0 0-47zm-235.818-76.794a6.916 6.916 0 0 1 3.939-8.912l99.993-38.8a6.9 6.9 0 0 1 8.921 3.925l3.8 9.817-55.645 21.59a5.994 5.994 0 0 0 -3.192 2.9l-19.35 38.55a6 6 0 0 0 -.257 4.794l.055.147 16.6 42.78h-25.068zm65.914 16.851-9.794 3.8 6.355-12.657zm-80.659 106.943h43.91l-23.737 11.407-20.051-9.671zm83.331 137.749 35.642-17.283 35.642 17.283-35.642 17.284zm71.3 47.91-35.658 17.29-35.655-17.29 35.655-17.29zm-71.307-95.818 35.649-17.289 35.652 17.289-35.652 17.288zm0-47.915 35.651-17.29 35.653 17.29-35.655 17.289zm21.9 23.957-35.651 17.289-35.652-17.288 35.651-17.29zm0 47.914-35.642 17.284-35.652-17.288 35.643-17.284zm0 47.9-35.655 17.29-35.641-17.284 35.654-17.289zm0 47.916-35.646 17.287-35.655-17.288 35.644-17.285zm13.751 6.668 35.644 17.285-35.646 17.288-35.644-17.284zm13.751-6.668 35.655-17.29 35.644 17.285-35.652 17.292zm35.655-30.626-35.657-17.287 35.642-17.283 35.654 17.289zm-35.657-65.187 35.649-17.291 35.642 17.284-35.652 17.288zm0-47.914 35.649-17.286 35.652 17.289-35.652 17.283zm0-47.916 35.649-17.29 35.656 17.29-35.656 17.287zm-13.751-6.46-23.731-11.51h47.468zm-13.753 6.459-35.647 17.289-35.651-17.289 35.651-17.289zm-104.175-2.6 5.371 2.6-5.032 2.441zm1.207 17.961 17.915-8.688 35.65 17.289-35.644 17.285-16.716-8.107zm2.124 31.57 2.038.988-1.91.926zm1 14.83 14.792-7.174 35.651 17.289-35.646 17.28-13.4-6.5zm3.12 46.4 11.681-5.665 35.652 17.289-35.656 17.285-10.06-4.879zm3.121 46.4 8.557-4.15 35.642 17.283-35.643 17.28-6.729-3.263zm3.12 46.389 5.435-2.635 35.655 17.29-35.654 17.285-3.4-1.649zm26.316 59.081a23.848 23.848 0 0 1 -21.489-13.494l.61-.289 28.412 13.783zm-7.127-20.474 35.652-17.288 35.644 17.284-35.649 17.288zm56.631 20.474 28.416-13.78 28.416 13.78zm42.167-20.478 35.649-17.284 35.652 17.288-35.652 17.284zm64.169 20.478h-7.533l28.413-13.79.615.306a23.847 23.847 0 0 1 -21.495 13.484zm24.28-28.79-3.4 1.649-35.654-17.289 35.654-17.29 5.435 2.635zm3.331-49.53-6.729 3.263-35.644-17.284 35.642-17.283 8.557 4.15zm3.33-49.52-10.061 4.879-35.656-17.289 35.656-17.289 11.681 5.665zm3.331-49.531-13.395 6.5-35.642-17.284 35.651-17.289 14.792 7.174zm2.275-33.819-1.91-.926 2.038-.988zm1.055-15.7-16.716 8.107-35.651-17.29 35.645-17.288 17.916 8.687zm2.065-30.7-5.032-2.44 5.371-2.6zm1.267-18.726-20.054 9.775-23.732-11.459h43.905zm20.775-17.134a11.412 11.412 0 0 1 -8.039 3.45h-266.18a11.5 11.5 0 0 1 0-23h178.85a6 6 0 0 0 0-12h-5.555l20.23-7.912a6 6 0 1 0 -4.37-11.176l-48.807 19.088h-42.25l-16.108-41.527 24.225-9.4a6 6 0 0 0 3.424-7.764l-8.33-21.467 66.7-25.88a6.905 6.905 0 0 1 8.924 3.928l39.613 102.11h-3.671a6 6 0 0 0 0 12h53.3a11.4 11.4 0 0 1 11.37 11.4 11.537 11.537 0 0 1 -3.327 8.15z" fill="#284268"/></svg>